<?xml version="1.0" standalone="no"?>
<!DOCTYPE svg PUBLIC "-//W3C//DTD SVG 20010904//EN"
 "http://www.w3.org/TR/2001/REC-SVG-20010904/DTD/svg10.dtd">
<svg version="1.0" xmlns="http://www.w3.org/2000/svg"
 width="125" height="35" viewBox="0 0 1483.000000 360.000000"
 preserveAspectRatio="xMidYMid meet">

<g transform="translate(0.000000,360.000000) scale(0.100000,-0.100000)"
fill="#000000" stroke="none">
<path d="M768 3590 c-155 -25 -299 -99 -414 -214 -92 -92 -150 -184 -191 -301
-26 -78 -27 -88 -31 -330 -2 -137 -8 -258 -13 -267 -7 -13 -22 -18 -52 -18
-24 0 -48 -5 -55 -12 -7 -7 -12 -41 -12 -85 0 -81 9 -93 72 -93 19 0 39 -5 46
-12 9 -9 12 -204 12 -814 0 -722 2 -802 16 -808 9 -3 118 -6 243 -6 166 0 231
3 243 13 13 10 32 144 98 692 44 374 83 695 87 713 5 30 -1 39 -81 120 -47 49
-86 97 -86 107 0 11 27 47 61 81 49 49 60 66 54 83 -5 18 -14 21 -59 21 -28 0
-57 5 -64 12 -9 9 -12 99 -12 343 0 325 1 331 24 380 30 66 91 120 157 139 65
20 83 20 146 1 58 -17 123 -80 123 -119 0 -13 -15 -55 -32 -92 -30 -62 -33
-78 -33 -159 0 -80 4 -97 32 -157 39 -83 97 -142 177 -179 193 -91 407 -9 499
191 16 35 21 65 21 140 0 82 -4 104 -29 164 -53 129 -178 270 -302 343 -66 39
-178 82 -268 104 -93 22 -292 32 -377 19z"/>
<path d="M11864 2490 c-173 -31 -346 -134 -418 -249 -51 -80 -69 -155 -64
-273 4 -99 7 -112 42 -184 80 -161 232 -270 538 -385 223 -84 274 -125 272
-218 -2 -61 -22 -95 -75 -126 -28 -16 -52 -20 -129 -20 -88 0 -100 3 -162 34
-37 18 -111 67 -164 107 -54 41 -106 74 -117 74 -15 0 -192 -157 -249 -222
-34 -39 -23 -67 55 -144 171 -167 415 -274 627 -274 339 0 602 164 682 425 17
52 22 95 22 170 0 122 -19 190 -75 275 -79 117 -205 193 -492 294 -219 78
-256 97 -290 146 -39 56 -4 136 69 160 52 17 174 15 231 -4 46 -15 87 -41 183
-113 24 -18 49 -33 57 -33 18 0 106 83 195 184 84 95 84 106 -2 187 -68 64
-204 136 -320 169 -85 25 -324 36 -416 20z"/>
<path d="M8453 2480 c-28 -5 -94 -23 -145 -40 -286 -92 -524 -342 -609 -640
-27 -96 -37 -299 -19 -406 58 -360 335 -664 695 -760 108 -29 381 -27 488 4
269 78 488 267 607 525 67 146 75 190 75 392 -1 170 -2 185 -29 265 -88 264
-267 473 -499 580 -124 58 -230 82 -377 85 -74 2 -158 0 -187 -5z m270 -455
c134 -35 249 -128 305 -247 121 -257 26 -556 -216 -675 -76 -38 -77 -38 -201
-38 -125 0 -126 0 -203 37 -293 144 -359 565 -125 801 115 116 284 163 440
122z"/>
<path d="M2422 2454 l-22 -15 0 -889 0 -889 22 -15 c33 -24 409 -23 432 0 14
13 16 54 16 290 0 171 4 283 10 295 10 18 24 19 289 19 257 0 279 1 294 18 24
27 25 352 1 376 -13 14 -54 16 -294 16 -266 0 -280 1 -290 19 -5 11 -10 86
-10 171 0 85 5 160 10 171 10 18 25 19 383 19 321 0 376 2 395 16 21 15 22 20
22 199 0 179 -1 184 -22 199 -20 14 -95 16 -618 16 -523 0 -598 -2 -618 -16z"/>
<path d="M3932 2454 l-22 -15 0 -889 c0 -794 2 -890 16 -904 13 -14 47 -16
215 -16 119 0 208 4 220 10 19 10 19 31 19 911 l0 899 -26 10 c-14 6 -110 10
-212 10 -154 0 -192 -3 -210 -16z"/>
<path d="M4631 2451 c-21 -21 -21 -27 -21 -904 0 -844 1 -885 18 -900 16 -15
46 -17 208 -17 148 0 194 3 210 14 18 14 19 34 24 559 l5 545 324 -534 c178
-293 335 -544 348 -556 24 -22 32 -23 230 -26 173 -3 208 -1 229 13 l24 15 0
885 0 884 -26 20 c-25 20 -40 21 -208 21 -142 0 -187 -3 -202 -14 -18 -14 -19
-34 -24 -526 l-5 -513 -312 505 c-172 277 -322 513 -334 524 -19 17 -40 19
-244 22 -215 3 -225 2 -244 -17z"/>
<path d="M7023 2455 l-23 -16 0 -620 c0 -506 -3 -626 -14 -653 -19 -46 -68
-78 -127 -84 -44 -4 -56 0 -108 32 -33 20 -67 36 -78 36 -10 0 -72 -53 -141
-123 -143 -143 -146 -151 -78 -221 62 -64 137 -109 236 -142 74 -25 98 -29
190 -28 84 2 120 7 178 27 197 68 334 207 394 400 23 72 23 74 23 724 0 521
-3 655 -13 665 -10 10 -66 14 -215 16 -172 2 -205 0 -224 -13z"/>
<path d="M9780 2461 l-25 -7 -3 -898 c-1 -656 1 -902 9 -912 9 -12 99 -14 488
-14 295 0 500 4 537 11 200 36 380 214 430 425 20 86 14 202 -15 295 -22 69
-83 173 -133 225 l-29 31 32 48 c65 96 92 248 66 370 -49 232 -229 398 -462
426 -83 10 -859 10 -895 0z m798 -382 c104 -51 130 -180 54 -271 -47 -56 -90
-68 -248 -68 -96 0 -144 4 -152 12 -17 17 -17 319 0 336 8 8 58 12 157 12 127
0 150 -3 189 -21z m52 -689 c98 -50 141 -182 90 -280 -18 -35 -60 -79 -92 -96
-36 -19 -378 -20 -396 -2 -17 17 -17 369 0 386 8 8 64 12 185 12 154 0 178 -2
213 -20z"/>
<path d="M1007 2453 c-16 -16 -3 -40 53 -99 33 -34 60 -70 60 -80 0 -10 -39
-57 -86 -105 l-85 -86 91 -764 c49 -420 93 -775 96 -788 4 -19 -15 -43 -113
-142 -74 -76 -124 -119 -138 -119 -13 0 -63 42 -135 115 l-115 115 -218 0
c-185 0 -218 -2 -223 -15 -16 -40 78 -187 181 -283 196 -183 478 -246 735
-163 129 41 210 91 305 186 116 117 177 229 209 387 14 66 16 186 16 852 0
426 3 781 6 790 4 11 19 16 49 16 62 0 75 17 75 99 0 39 -5 72 -12 79 -9 9
-107 12 -378 12 -202 0 -370 -3 -373 -7z"/>
<path d="M14412 1559 c-67 -11 -137 -47 -183 -93 l-36 -37 -12 48 c-18 71 -22
73 -126 73 -75 0 -94 -3 -99 -16 -3 -9 -6 -210 -6 -448 0 -323 3 -435 12 -444
19 -19 232 -16 252 4 14 13 16 52 16 273 0 246 1 259 23 301 55 110 207 119
275 17 l27 -40 5 -281 5 -281 122 -3 c117 -2 122 -2 134 19 18 35 6 599 -14
664 -55 172 -220 274 -395 244z"/>
<path d="M12960 1526 c0 -29 356 -877 373 -888 20 -13 142 -9 159 4 17 14 378
864 378 891 0 16 -13 17 -137 15 l-138 -3 -81 -240 c-45 -132 -84 -249 -88
-260 -3 -10 -8 -17 -11 -14 -3 3 -44 116 -91 250 -47 134 -90 250 -96 256 -7
9 -48 13 -139 13 l-129 0 0 -24z"/>
<path d="M12824 877 c-2 -7 -3 -65 -2 -128 l3 -114 130 0 130 0 0 125 0 125
-128 3 c-99 2 -129 0 -133 -11z"/>
</g>
</svg>
